<svg xmlns="http://www.w3.org/2000/svg" viewBox="0 0 40 40">
  <circle cx="20" cy="14" r="10" fill="#0EA5A3" opacity="0.15"/>
  <circle cx="20" cy="14" r="7" fill="#0EA5A3"/>
  <circle cx="17" cy="12" r="1.5" fill="white"/>
  <circle cx="23" cy="12" r="1.5" fill="white"/>
  <ellipse cx="17" cy="15" rx="1.5" ry="1" fill="#FF8B6A" opacity="0.6"/>
  <ellipse cx="23" cy="15" rx="1.5" ry="1" fill="#FF8B6A" opacity="0.6"/>
  <path d="M10 20 Q8 28 6 34" stroke="#0EA5A3" stroke-width="2.5" stroke-linecap="round"/>
  <path d="M13 21 Q12 29 11 34" stroke="#0EA5A3" stroke-width="2.5" stroke-linecap="round"/>
  <path d="M17 22 Q17 30 16 34" stroke="#0EA5A3" stroke-width="2.5" stroke-linecap="round"/>
  <path d="M20 22 Q20 30 20 34" stroke="#0EA5A3" stroke-width="2.5" stroke-linecap="round"/>
  <path d="M23 22 Q23 30 24 34" stroke="#0EA5A3" stroke-width="2.5" stroke-linecap="round"/>
  <path d="M27 21 Q28 29 29 34" stroke="#0EA5A3" stroke-width="2.5" stroke-linecap="round"/>
  <path d="M30 20 Q32 28 34 34" stroke="#0EA5A3" stroke-width="2.5" stroke-linecap="round"/>
</svg>
